#!OML:ASF \\sashay\E\basketball\basketball\Project 1\Capture day 1\Session 1\Subject.ASF
:FULLY-SPECIFIED
:DEGREES
57
root -36.5221 15.761 0.0426892 -172.747 63.4693 -178.318
lowerback 13.12 1.03762 -2.06816
upperback 10.7374 2.07637 1.59037
thorax 3.86671 1.24057 2.65429
lowerneck 3.02699 -13.4034 -14.1194
upperneck -13.0114 -16.6324 26.8394
head -0.482106 -8.83812 10.4142
rclavicle -3.77691e-014 5.1684e-015
rhumerus -25.9554 47.2459 -105.855
rradius 75.5724
rwrist -8.92923
rhand -43.0277 54.1281
rfingers 7.12502
rthumb -15.885 24.7597
lclavicle -3.77691e-014 5.1684e-015
lhumerus -28.4 -18.0988 95.5603
lradius 86.6888
lwrist 30.7869
lhand -25.6962 46.6985
lfingers 7.12502
lthumb 0.839183 76.6766
rfemur -16.2301 -8.40115 18.3066
rtibia 36.2248
rfoot -27.5673 -22.14
rtoes 19.559
lfemur -25.098 -3.56365 -14.9612
ltibia 37.7882
lfoot -13.1633 -2.59546
ltoes -0.0189374
58
root -36.519 15.7523 0.0140338 -172.505 63.3678 -178.058
lowerback 13.1381 1.05949 -2.04801
upperback 10.7729 2.11269 1.65323
thorax 3.89196 1.25963 2.70609
lowerneck 3.17234 -13.4317 -14.0991
upperneck -13.3215 -16.6231 26.943
head -0.584745 -8.85561 10.4742
rclavicle 1.41137e-014 3.06128e-014
rhumerus -25.8582 47.1824 -105.8
rradius 75.5326
rwrist -9.00425
rhand -42.6887 53.8231
rfingers 7.12502
rthumb -15.5585 24.429
lclavicle 1.41137e-014 3.06128e-014
lhumerus -28.4001 -17.9624 95.5579
lradius 86.8206
lwrist 30.7344
lhand -25.6494 45.5027
lfingers 7.12502
lthumb 0.884342 75.4806
rfemur -16.2864 -10.7824 18.7964
rtibia 36.0859
rfoot -18.1026 -28.156
rtoes -14.1156
lfemur -25.3731 -3.08026 -15.0894
ltibia 38.206
lfoot -13.4172 -1.95241
ltoes -13.1133
59
root -36.5052 15.7621 -0.00365606 -171.858 63.681 -177.637
lowerback 12.8241 1.22804 -2.3751
upperback 10.7429 2.29323 1.87149
thorax 4.001 1.31499 3.1105
lowerneck 3.33298 -13.4922 -14.2563
upperneck -13.8043 -16.6532 27.0186
head -0.716092 -8.89064 10.5585
rclavicle -2.52457e-014 4.65156e-014
rhumerus -25.865 47.6026 -105.604
rradius 75.5319
rwrist -9.40126
rhand -42.4248 53.86
rfingers 7.12502
rthumb -15.3044 24.4462
lclavicle -2.52457e-014 4.65156e-014
lhumerus -28.3688 -17.5617 95.7909
lradius 86.8663
lwrist 30.6718
lhand -25.6283 43.944
lfingers 7.12502
lthumb 0.904767 73.9219
rfemur -16.4297 -10.4333 18.9755
rtibia 35.9228
rfoot -18.715 -27.8735
rtoes -12.3207
lfemur -25.7166 -2.20792 -15.0407
ltibia 38.551
lfoot -13.5708 -1.98506
ltoes -15.0066
60
root -36.5044 15.762 -0.0299017 -171.411 63.5081 -177.197
lowerback 12.7964 1.16214 -2.16912
upperback 10.7528 2.22673 1.90583
thorax 4.03449 1.29294 3.03845
lowerneck 3.41822 -13.5505 -14.2124
upperneck -13.9785 -16.7149 26.9882
head -0.774642 -8.93245 10.5517
rclavicle -4.49253e-014 6.75868e-015
rhumerus -25.7386 47.8576 -105.559
rradius 75.574
rwrist -9.77261
rhand -42.1796 53.9151
rfingers 7.12502
rthumb -15.0682 24.4835
lclavicle -4.49253e-014 6.75868e-015
lhumerus -28.2778 -17.3474 95.7313
lradius 86.8678
lwrist 30.6492
lhand -25.6915 44.0094
lfingers 7.12502
lthumb 0.843704 73.9874
rfemur -16.3406 -10.419 19.0979
rtibia 35.8667
rfoot -20.1793 -27.2172
rtoes -8.45126
lfemur -25.8846 -2.08674 -14.9263
ltibia 38.8041
lfoot -13.6225 -2.15387
ltoes -14.2784
61
root -36.5173 15.7597 -0.0626898 -171.97 63.2755 -177.817
lowerback 13.0343 1.10441 -2.23791
upperback 10.7026 2.14322 1.77429
thorax 3.86118 1.25569 2.93771
lowerneck 3.48603 -13.5987 -14.0299
upperneck -13.9672 -16.7883 26.8258
head -0.805939 -8.97507 10.4691
rclavicle -2.18663e-014 1.63003e-014
rhumerus -25.7128 47.783 -105.616
rradius 75.5664
rwrist -9.84079
rhand -42.0558 54.3736
rfingers 7.12502
rthumb -14.9489 24.9331
lclavicle -2.18663e-014 1.63003e-014
lhumerus -28.3787 -17.1899 95.6804
lradius 86.9746
lwrist 30.6102
lhand -25.5737 44.8804
lfingers 7.12502
lthumb 0.957485 74.858
rfemur -16.3259 -10.8652 18.6379
rtibia 35.9185
rfoot -20.7061 -26.7079
rtoes -6.98912
lfemur -25.9275 -2.41614 -15.3622
ltibia 38.8732
lfoot -13.7185 -2.05526
ltoes -15.0306
62
root -36.5234 15.7574 -0.0903686 -172.611 63.5783 -178.809
lowerback 12.8921 1.26458 -2.61134
upperback 10.6512 2.31349 1.48023
thorax 3.87204 1.32405 2.82467
lowerneck 3.57376 -13.6468 -13.7734
upperneck -14.1123 -16.8106 26.8451
head -0.879857 -9.00606 10.45
rclavicle -1.94809e-014 -4.05521e-014
rhumerus -25.6896 47.4488 -105.802
rradius 75.5785
rwrist -9.66413
rhand -41.9818 54.6293
rfingers 7.12502
rthumb -14.8777 25.1835
lclavicle -1.94809e-014 -4.05521e-014
lhumerus -28.4243 -17.1972 95.494
lradius 87.0921
lwrist 30.5018
lhand -25.6471 45.2847
lfingers 7.12502
lthumb 0.886591 75.2626
rfemur -16.7224 -11.1145 18.0483
rtibia 36.0136
rfoot -19.5654 -26.9184
rtoes -10.3864
lfemur -26.1264 -2.00898 -16.0109
ltibia 38.9287
lfoot -13.8857 -2.16793
ltoes -15.7234
63
root -36.5224 15.7542 -0.11666 -172.318 63.8024 -178.65
lowerback 12.7548 1.39219 -2.56382
upperback 10.6626 2.48702 1.37968
thorax 3.9513 1.41419 2.68075
lowerneck 3.56809 -13.6516 -13.6979
upperneck -14.2915 -16.7597 27.0227
head -0.924867 -8.99299 10.5107
rclavicle -4.07509e-014 -4.77083e-015
rhumerus -25.5443 47.2036 -105.839
rradius 75.6055
rwrist -9.48964
rhand -41.957 54.4378
rfingers 7.12502
rthumb -14.8538 24.9902
lclavicle -4.07509e-014 -4.77083e-015
lhumerus -28.34 -17.2632 95.3451
lradius 87.1603
lwrist 30.4925
lhand -26.0626 45.7043
lfingers 7.12502
lthumb 0.485281 75.6835
rfemur -16.9969 -11.3412 18.0731
rtibia 36.1799
rfoot -17.9819 -27.4294
rtoes -15.3048
lfemur -26.2171 -1.60056 -16.0635
ltibia 38.9494
lfoot -14.0054 -2.30718
ltoes -16.1501
64
root -36.5233 15.7489 -0.145847 -171.963 63.782 -178.325
lowerback 12.6999 1.39911 -2.52086
upperback 10.6845 2.5016 1.4735
thorax 4.00095 1.42014 2.75645
lowerneck 3.53032 -13.5811 -13.8802
upperneck -14.2554 -16.6837 27.0091
head -0.9074 -8.94347 10.5372
rclavicle 4.87022e-014 2.42517e-014
rhumerus -25.3843 47.4009 -105.696
rradius 75.5646
rwrist -9.86388
rhand -41.8385 54.7034
rfingers 7.12502
rthumb -14.7395 25.2475
lclavicle 4.87022e-014 2.42517e-014
lhumerus -28.2938 -17.0409 95.4248
lradius 87.2611
lwrist 30.5085
lhand -26.3413 46.2638
lfingers 7.12502
lthumb 0.216132 76.2434
rfemur -17.0544 -11.3785 18.0843
rtibia 36.3586
rfoot -18.5844 -26.955
rtoes -13.6362
lfemur -26.256 -1.60211 -16.0132
ltibia 38.9713
lfoot -14.0141 -2.34867
ltoes -15.7567
65
root -36.5266 15.7438 -0.176415 -172.355 63.8287 -178.869
lowerback 12.6398 1.41157 -2.83427
upperback 10.6976 2.49272 1.43956
thorax 4.04179 1.39706 2.90029
lowerneck 3.4991 -13.541 -14.008
upperneck -14.1322 -16.6725 26.8881
head -0.872237 -8.92374 10.5095
rclavicle 2.48481e-014 8.74653e-015
rhumerus -25.2744 47.5781 -105.61
rradius 75.6284
rwrist -10.0909
rhand -41.6411 54.4854
rfingers 7.12502
rthumb -14.5494 25.0156
lclavicle 2.48481e-014 8.74653e-015
lhumerus -28.3342 -16.7606 95.4464
lradius 87.4425
lwrist 30.4265
lhand -26.5542 46.7802
lfingers 7.12502
lthumb 0.0105287 76.7599
rfemur -17.2864 -11.7605 17.7454
rtibia 36.5361
rfoot -17.3209 -27.287
rtoes -17.2356
lfemur -26.2951 -1.68112 -16.351
ltibia 39.0175
lfoot -14.0584 -2.64172
ltoes -13.111
66
root -36.5376 15.7249 -0.203548 -172.696 63.656 -179.149
lowerback 12.9677 1.36991 -2.84829
upperback 10.6849 2.43722 1.3659
thorax 3.8589 1.37832 2.82416
lowerneck 3.44413 -13.5835 -13.9939
upperneck -14.0368 -16.7495 26.8277
head -0.829282 -8.95469 10.4688
rclavicle 4.4329e-014 -3.69739e-014
rhumerus -25.2172 47.4479 -105.657
rradius 75.7218
rwrist -9.80628
rhand -41.5755 53.9661
rfingers 7.12502
rthumb -14.4862 24.4917
lclavicle 4.4329e-014 -3.69739e-014
lhumerus -28.4344 -16.6813 95.351
lradius 87.5977
lwrist 30.4566
lhand -26.8077 47.1045
lfingers 7.12502
lthumb -0.234395 77.0841
rfemur -17.2588 -11.7936 17.4503
rtibia 36.6764
rfoot -17.385 -27.237
rtoes -16.528
lfemur -26.184 -2.17515 -16.4645
ltibia 39.0261
lfoot -14.1549 -3.07853
ltoes -9.16728
67
root -36.5425 15.7149 -0.228561 -172.524 63.4597 -178.732
lowerback 13.3727 1.3795 -2.64825
upperback 10.6939 2.4712 1.43538
thorax 3.65242 1.41424 2.76738
lowerneck 3.46995 -13.6783 -13.9176
upperneck -14.1295 -16.8733 26.7226
head -0.854852 -9.01954 10.4167
rclavicle -5.1684e-015 3.29983e-014
rhumerus -25.1339 47.2419 -105.602
rradius 75.6462
rwrist -9.48832
rhand -41.5888 53.7406
rfingers 7.12502
rthumb -14.499 24.2672
lclavicle -5.1684e-015 3.29983e-014
lhumerus -28.5017 -16.6936 95.3578
lradius 87.7064
lwrist 30.5548
lhand -26.976 47.358
lfingers 7.12502
lthumb -0.396872 77.3374
rfemur -17.0736 -12.2295 17.6119
rtibia 36.786
rfoot -14.7591 -28.2973
rtoes -23.6551
lfemur -26.0305 -2.17528 -16.3558
ltibia 39.0485
lfoot -14.2482 -3.21317
ltoes -11.9317
68
root -36.5324 15.7405 -0.250264 -172.474 63.6455 -178.681
lowerback 13.3008 1.52476 -2.60816
upperback 10.7287 2.67245 1.27066
thorax 3.72347 1.52239 2.55504
lowerneck 3.76666 -13.7832 -13.5977
upperneck -14.5974 -16.9261 26.8321
head -1.04427 -9.09378 10.4512
rclavicle -7.53394e-014 7.59357e-014
rhumerus -24.3491 46.0364 -105.16
rradius 75.0716
rwrist -5.81744
rhand -40.2992 52.5869
rfingers 7.12502
rthumb -13.2561 23.0285
lclavicle -7.53394e-014 7.59357e-014
lhumerus -28.5324 -16.8556 95.0768
lradius 87.8935
lwrist 30.6141
lhand -27.2654 47.7182
lfingers 7.12502
lthumb -0.676378 77.6969
rfemur -16.9048 -11.7578 17.4496
rtibia 36.7951
rfoot -17.4201 -26.9163
rtoes -16.0342
lfemur -25.9944 -1.36217 -16.5644
ltibia 39.0855
lfoot -14.4498 -3.03928
ltoes -18.5083
69
root -36.5253 15.7483 -0.273987 -172.696 63.8779 -179.076
lowerback 13.023 1.67102 -3.00376
upperback 10.7815 2.83559 1.26223
thorax 3.90759 1.57625 2.7644
lowerneck 4.07253 -13.8588 -13.5608
upperneck -15.1765 -16.9492 26.9552
head -1.2429 -9.14649 10.5446
rclavicle -4.11484e-014 3.26007e-014
rhumerus -24.8446 47.2071 -105.756
rradius 75.0617
rwrist -9.94393
rhand -41.5107 55.4832
rfingers 7.12502
rthumb -14.4238 26.0044
lclavicle -4.11484e-014 3.26007e-014
lhumerus -28.5023 -16.6306 95.1113
lradius 88.0196
lwrist 30.5211
lhand -27.59 47.9529
lfingers 7.12502
lthumb -0.98988 77.9303
rfemur -16.9508 -11.8667 17.1807
rtibia 36.7375
rfoot -17.2395 -26.6184
rtoes -15.8977
lfemur -26.0905 -0.958008 -16.9193
ltibia 39.185
lfoot -14.6316 -2.85168
ltoes -19.8024
